<svg width="38" height="42" viewBox="0 0 38 42" fill="none" xmlns="http://www.w3.org/2000/svg">
<g filter="url(#filter0_dddd_399_3014)">
<circle cx="19.1717" cy="15.8557" r="13.4929" fill="#FC7E06"/>
</g>
<path d="M19.6515 13.2037C19.8193 12.9944 19.7856 12.6887 19.5762 12.5209C19.3669 12.3532 19.0612 12.3869 18.8935 12.5962L19.6515 13.2037ZM15.4528 17.6658L15.8206 17.983C15.8244 17.9786 15.8281 17.9741 15.8318 17.9696L15.4528 17.6658ZM15.342 17.9365L14.8572 17.9049L14.8568 17.9141L15.342 17.9365ZM15.2513 19.8943L14.7661 19.8718C14.765 19.8959 14.7657 19.9201 14.7682 19.9441L15.2513 19.8943ZM15.761 20.3392L15.7769 20.8247C15.8093 20.8236 15.8415 20.8193 15.873 20.8118L15.761 20.3392ZM17.7039 19.8788L17.816 20.3514L17.8235 20.3495L17.7039 19.8788ZM17.9533 19.7207L18.328 20.0298L18.3322 20.0246L17.9533 19.7207ZM22.2439 15.1467C22.4117 14.9374 22.3781 14.6317 22.1688 14.4639C21.9596 14.2961 21.6538 14.3297 21.486 14.539L22.2439 15.1467ZM18.8955 12.5961C18.7277 12.8053 18.7612 13.111 18.9706 13.2789C19.1798 13.4467 19.4855 13.4131 19.6533 13.2038L18.8955 12.5961ZM20.3029 11.6177L20.6818 11.9215C20.6881 11.9136 20.6943 11.9054 20.7002 11.8971L20.3029 11.6177ZM21.3578 11.4104L21.6686 11.0371C21.6531 11.0242 21.6368 11.0123 21.6199 11.0015L21.3578 11.4104ZM22.8066 12.6163L23.1503 12.2732C23.1398 12.2626 23.1288 12.2525 23.1173 12.243L22.8066 12.6163ZM22.8008 13.6771L22.4608 13.3302C22.447 13.3437 22.4341 13.358 22.422 13.373L22.8008 13.6771ZM21.486 14.539C21.3181 14.7482 21.3517 15.0536 21.5609 15.2216C21.7701 15.3895 22.0759 15.3559 22.2439 15.1467L21.486 14.539ZM19.7548 12.828C19.715 12.5627 19.4677 12.3798 19.2025 12.4196C18.9371 12.4593 18.7543 12.7066 18.7941 12.9719L19.7548 12.828ZM21.9303 15.3241C22.1961 15.288 22.3823 15.0432 22.3463 14.7774C22.3101 14.5116 22.0654 14.3254 21.7995 14.3615L21.9303 15.3241ZM18.8935 12.5962L15.0737 17.362L15.8318 17.9696L19.6515 13.2037L18.8935 12.5962ZM15.0849 17.3486C14.9506 17.5044 14.8706 17.6996 14.8572 17.9049L15.8267 17.9681C15.8264 17.9736 15.8242 17.9788 15.8206 17.983L15.0849 17.3486ZM14.8568 17.9141L14.7661 19.8718L15.7366 19.9168L15.8272 17.959L14.8568 17.9141ZM14.7682 19.9441C14.8211 20.457 15.2616 20.8415 15.7769 20.8247L15.7452 19.8538C15.7431 19.8538 15.7421 19.8535 15.7414 19.8532C15.7405 19.8529 15.7393 19.8523 15.738 19.8512C15.7367 19.8501 15.7359 19.849 15.7355 19.8481C15.7351 19.8475 15.7347 19.8465 15.7345 19.8444L14.7682 19.9441ZM15.873 20.8118L17.816 20.3514L17.5919 19.4061L15.649 19.8666L15.873 20.8118ZM17.8235 20.3495C18.0213 20.2993 18.1981 20.1874 18.328 20.0298L17.5785 19.4116C17.5801 19.4098 17.5821 19.4085 17.5844 19.4079L17.8235 20.3495ZM18.3322 20.0246L22.2439 15.1467L21.486 14.539L17.5743 19.4169L18.3322 20.0246ZM19.6533 13.2038L20.6818 11.9215L19.9239 11.3138L18.8955 12.5961L19.6533 13.2038ZM20.7002 11.8971C20.7899 11.7694 20.9643 11.7352 21.0957 11.8194L21.6199 11.0015C21.0505 10.6366 20.2946 10.785 19.9055 11.3382L20.7002 11.8971ZM21.0471 11.7837L22.4959 12.9896L23.1173 12.243L21.6686 11.0371L21.0471 11.7837ZM22.4628 12.9594C22.512 13.0087 22.5394 13.0756 22.5391 13.1452L23.5105 13.1506C23.5123 12.8218 23.3827 12.5059 23.1503 12.2732L22.4628 12.9594ZM22.5391 13.1452C22.5387 13.2149 22.5105 13.2815 22.4608 13.3302L23.1408 14.024C23.3756 13.7938 23.5087 13.4794 23.5105 13.1506L22.5391 13.1452ZM22.422 13.373L21.486 14.539L22.2439 15.1467L23.1796 13.9812L22.422 13.373ZM18.7941 12.9719C19.0203 14.4817 20.4175 15.5296 21.9303 15.3241L21.7995 14.3615C20.8133 14.4955 19.9023 13.8123 19.7548 12.828L18.7941 12.9719Z" fill="white"/>
<defs>
<filter id="filter0_dddd_399_3014" x="0.889561" y="0.67788" width="36.5646" height="40.8278" filterUnits="userSpaceOnUse" color-interpolation-filters="sRGB">
<feFlood flood-opacity="0" result="BackgroundImageFix"/>
<feColorMatrix in="SourceAlpha" type="matrix" values="0 0 0 0 0 0 0 0 0 0 0 0 0 0 0 0 0 0 127 0" result="hardAlpha"/>
<feOffset dy="0.682215"/>
<feGaussianBlur stdDeviation="0.579883"/>
<feColorMatrix type="matrix" values="0 0 0 0 0.160784 0 0 0 0 0.282353 0 0 0 0 0.596078 0 0 0 0.012037 0"/>
<feBlend mode="normal" in2="BackgroundImageFix" result="effect1_dropShadow_399_3014"/>
<feColorMatrix in="SourceAlpha" type="matrix" values="0 0 0 0 0 0 0 0 0 0 0 0 0 0 0 0 0 0 127 0" result="hardAlpha"/>
<feOffset dy="3.00175"/>
<feGaussianBlur stdDeviation="1.2007"/>
<feColorMatrix type="matrix" values="0 0 0 0 0.160784 0 0 0 0 0.282353 0 0 0 0 0.596078 0 0 0 0.0196296 0"/>
<feBlend mode="normal" in2="effect1_dropShadow_399_3014" result="effect2_dropShadow_399_3014"/>
<feColorMatrix in="SourceAlpha" type="matrix" values="0 0 0 0 0 0 0 0 0 0 0 0 0 0 0 0 0 0 127 0" result="hardAlpha"/>
<feOffset dy="7.36792"/>
<feGaussianBlur stdDeviation="2.39458"/>
<feColorMatrix type="matrix" values="0 0 0 0 0.160784 0 0 0 0 0.282353 0 0 0 0 0.596078 0 0 0 0.025 0"/>
<feBlend mode="normal" in2="effect2_dropShadow_399_3014" result="effect3_dropShadow_399_3014"/>
<feColorMatrix in="SourceAlpha" type="matrix" values="0 0 0 0 0 0 0 0 0 0 0 0 0 0 0 0 0 0 127 0" result="hardAlpha"/>
<feOffset dy="0.336983"/>
<feGaussianBlur stdDeviation="1.01095"/>
<feComposite in2="hardAlpha" operator="out"/>
<feColorMatrix type="matrix" values="0 0 0 0 0 0 0 0 0 0 0 0 0 0 0 0 0 0 0.14 0"/>
<feBlend mode="normal" in2="effect3_dropShadow_399_3014" result="effect4_dropShadow_399_3014"/>
<feBlend mode="normal" in="SourceGraphic" in2="effect4_dropShadow_399_3014" result="shape"/>
</filter>
</defs>
</svg>
