<svg width="24" height="24" viewBox="0 0 24 24" fill="none" xmlns="http://www.w3.org/2000/svg">
<mask id="path-1-inside-1_526_3523" fill="white">
<path d="M8.52953 4.13929C9.1922 4.13929 9.7278 4.67216 9.7278 5.3321V8.89822C9.72745 9.05522 9.69617 9.21061 9.63575 9.35552C9.57534 9.50043 9.48698 9.63203 9.37571 9.74279C9.26444 9.85355 9.13244 9.94131 8.98725 10.0011C8.84207 10.0608 8.68653 10.0914 8.52953 10.091H5.32822C5.17129 10.0914 5.01582 10.0608 4.87071 10.001C4.7256 9.94127 4.59369 9.85349 4.48253 9.74271C4.37137 9.63193 4.28314 9.50032 4.22287 9.35542C4.16261 9.21051 4.1315 9.05515 4.13132 8.89822V5.3321C4.13132 4.67352 4.66692 4.13929 5.32822 4.13929H8.52953ZM8.52953 13.6708C9.1922 13.6708 9.7278 14.2037 9.7278 14.8636V18.4297C9.72745 18.5867 9.69617 18.7421 9.63575 18.887C9.57534 19.0319 9.48698 19.1635 9.37571 19.2743C9.26444 19.3851 9.13244 19.4728 8.98725 19.5326C8.84207 19.5923 8.68653 19.6229 8.52953 19.6225H5.32822C5.17129 19.6229 5.01582 19.5923 4.87071 19.5325C4.7256 19.4728 4.59369 19.385 4.48253 19.2742C4.37137 19.1634 4.28314 19.0318 4.22287 18.8869C4.16261 18.742 4.1315 18.5867 4.13132 18.4297V14.8636C4.13132 14.2037 4.66692 13.6708 5.32822 13.6708H8.52953ZM17.6962 4.13929C18.3575 4.13929 18.8931 4.67216 18.8931 5.3321V8.89822C18.8924 9.21505 18.766 9.51865 18.5415 9.74231C18.3171 9.96596 18.0131 10.0914 17.6962 10.091H14.4949C14.3379 10.0916 14.1823 10.0611 14.037 10.0014C13.8917 9.94174 13.7597 9.85399 13.6484 9.74319C13.537 9.63239 13.4487 9.50073 13.3883 9.35573C13.328 9.21074 13.2968 9.05527 13.2967 8.89822V5.3321C13.2967 4.67352 13.8336 4.13929 14.4949 4.13929H17.6962ZM5.18066 11.2305H8.6771C9.8822 11.2305 10.8578 10.2604 10.8578 9.06217V5.16814C10.8572 4.8825 10.8004 4.59977 10.6904 4.33613C10.5805 4.07249 10.4197 3.83312 10.2171 3.63172C10.0146 3.43031 9.77429 3.27083 9.51003 3.16239C9.24578 3.05395 8.96273 2.99869 8.6771 2.99977H5.18203C3.97693 2.99977 3 3.96987 3 5.1695V9.06217C3.00054 9.34781 3.0574 9.63054 3.16733 9.89418C3.27726 10.1578 3.4381 10.3972 3.64065 10.5986C3.84319 10.8 4.08347 10.9595 4.34772 11.0679C4.61198 11.1764 4.89502 11.2316 5.18066 11.2305ZM5.18066 20.7621H8.6771C9.8822 20.7621 10.8578 19.792 10.8578 18.5923V14.6996C10.8572 14.414 10.8004 14.1313 10.6904 13.8676C10.5805 13.604 10.4197 13.3646 10.2171 13.1632C10.0146 12.9618 9.77429 12.8023 9.51003 12.6939C9.24578 12.5855 8.96273 12.5302 8.6771 12.5313H5.18203C3.97693 12.5313 3.00137 13.5014 3.00137 14.6996V18.5937C3.0019 18.8793 3.05876 19.1621 3.16869 19.4257C3.27862 19.6893 3.43946 19.9287 3.64201 20.1301C3.84456 20.3315 4.08484 20.491 4.34909 20.5994C4.61335 20.7079 4.89639 20.7631 5.18203 20.7621H5.18066ZM14.3487 11.2305H17.8424C19.0475 11.2305 20.0231 10.2604 20.0231 9.06217V5.16814C20.0226 4.8825 19.9657 4.59977 19.8558 4.33613C19.7458 4.07249 19.585 3.83312 19.3824 3.63172C19.1799 3.43031 18.9396 3.27083 18.6754 3.16239C18.4111 3.05395 18.1281 2.99869 17.8424 2.99977H14.3474C13.1423 2.99977 12.1681 3.96987 12.1681 5.1695V9.06217C12.1686 9.34781 12.2255 9.63054 12.3354 9.89418C12.4453 10.1578 12.6062 10.3972 12.8087 10.5986C13.0113 10.8 13.2515 10.9595 13.5158 11.0679C13.78 11.1764 14.0631 11.2316 14.3487 11.2305ZM17.6921 19.6157H14.346C13.6246 19.6157 13.3131 19.3151 13.3131 18.5923V14.6996C13.3131 13.9796 13.6259 13.6653 14.3474 13.6653H17.8424C18.5666 13.6653 18.8918 13.9782 18.8918 14.6983V18.5951C18.8918 18.8342 19.1473 19.1088 19.4807 19.1088C19.814 19.1088 20.0231 18.8342 20.0231 18.5951V14.6983C20.0224 14.4128 19.9654 14.1302 19.8554 13.8667C19.7454 13.6032 19.5845 13.364 19.382 13.1627C19.1794 12.9615 18.9392 12.8021 18.6751 12.6938C18.4109 12.5854 18.128 12.5302 17.8424 12.5313H14.3474C13.1423 12.5313 12.1667 13.5014 12.1667 14.6996V18.5937C12.1672 18.8792 12.2241 19.1618 12.3339 19.4254C12.4437 19.6889 12.6045 19.9282 12.8069 20.1296C13.0093 20.331 13.2494 20.4905 13.5135 20.599C13.7776 20.7076 14.0605 20.763 14.346 20.7621H17.8315C18.0829 20.7621 18.4054 20.5571 18.4054 20.1868C18.4047 20.037 18.3454 19.8933 18.2402 19.7866C18.135 19.6799 17.9923 19.6186 17.8424 19.6157H17.6935H17.6921Z"/>
</mask>
<path d="M8.52953 4.13929C9.1922 4.13929 9.7278 4.67216 9.7278 5.3321V8.89822C9.72745 9.05522 9.69617 9.21061 9.63575 9.35552C9.57534 9.50043 9.48698 9.63203 9.37571 9.74279C9.26444 9.85355 9.13244 9.94131 8.98725 10.0011C8.84207 10.0608 8.68653 10.0914 8.52953 10.091H5.32822C5.17129 10.0914 5.01582 10.0608 4.87071 10.001C4.7256 9.94127 4.59369 9.85349 4.48253 9.74271C4.37137 9.63193 4.28314 9.50032 4.22287 9.35542C4.16261 9.21051 4.1315 9.05515 4.13132 8.89822V5.3321C4.13132 4.67352 4.66692 4.13929 5.32822 4.13929H8.52953ZM8.52953 13.6708C9.1922 13.6708 9.7278 14.2037 9.7278 14.8636V18.4297C9.72745 18.5867 9.69617 18.7421 9.63575 18.887C9.57534 19.0319 9.48698 19.1635 9.37571 19.2743C9.26444 19.3851 9.13244 19.4728 8.98725 19.5326C8.84207 19.5923 8.68653 19.6229 8.52953 19.6225H5.32822C5.17129 19.6229 5.01582 19.5923 4.87071 19.5325C4.7256 19.4728 4.59369 19.385 4.48253 19.2742C4.37137 19.1634 4.28314 19.0318 4.22287 18.8869C4.16261 18.742 4.1315 18.5867 4.13132 18.4297V14.8636C4.13132 14.2037 4.66692 13.6708 5.32822 13.6708H8.52953ZM17.6962 4.13929C18.3575 4.13929 18.8931 4.67216 18.8931 5.3321V8.89822C18.8924 9.21505 18.766 9.51865 18.5415 9.74231C18.3171 9.96596 18.0131 10.0914 17.6962 10.091H14.4949C14.3379 10.0916 14.1823 10.0611 14.037 10.0014C13.8917 9.94174 13.7597 9.85399 13.6484 9.74319C13.537 9.63239 13.4487 9.50073 13.3883 9.35573C13.328 9.21074 13.2968 9.05527 13.2967 8.89822V5.3321C13.2967 4.67352 13.8336 4.13929 14.4949 4.13929H17.6962ZM5.18066 11.2305H8.6771C9.8822 11.2305 10.8578 10.2604 10.8578 9.06217V5.16814C10.8572 4.8825 10.8004 4.59977 10.6904 4.33613C10.5805 4.07249 10.4197 3.83312 10.2171 3.63172C10.0146 3.43031 9.77429 3.27083 9.51003 3.16239C9.24578 3.05395 8.96273 2.99869 8.6771 2.99977H5.18203C3.97693 2.99977 3 3.96987 3 5.1695V9.06217C3.00054 9.34781 3.0574 9.63054 3.16733 9.89418C3.27726 10.1578 3.4381 10.3972 3.64065 10.5986C3.84319 10.8 4.08347 10.9595 4.34772 11.0679C4.61198 11.1764 4.89502 11.2316 5.18066 11.2305ZM5.18066 20.7621H8.6771C9.8822 20.7621 10.8578 19.792 10.8578 18.5923V14.6996C10.8572 14.414 10.8004 14.1313 10.6904 13.8676C10.5805 13.604 10.4197 13.3646 10.2171 13.1632C10.0146 12.9618 9.77429 12.8023 9.51003 12.6939C9.24578 12.5855 8.96273 12.5302 8.6771 12.5313H5.18203C3.97693 12.5313 3.00137 13.5014 3.00137 14.6996V18.5937C3.0019 18.8793 3.05876 19.1621 3.16869 19.4257C3.27862 19.6893 3.43946 19.9287 3.64201 20.1301C3.84456 20.3315 4.08484 20.491 4.34909 20.5994C4.61335 20.7079 4.89639 20.7631 5.18203 20.7621H5.18066ZM14.3487 11.2305H17.8424C19.0475 11.2305 20.0231 10.2604 20.0231 9.06217V5.16814C20.0226 4.8825 19.9657 4.59977 19.8558 4.33613C19.7458 4.07249 19.585 3.83312 19.3824 3.63172C19.1799 3.43031 18.9396 3.27083 18.6754 3.16239C18.4111 3.05395 18.1281 2.99869 17.8424 2.99977H14.3474C13.1423 2.99977 12.1681 3.96987 12.1681 5.1695V9.06217C12.1686 9.34781 12.2255 9.63054 12.3354 9.89418C12.4453 10.1578 12.6062 10.3972 12.8087 10.5986C13.0113 10.8 13.2515 10.9595 13.5158 11.0679C13.78 11.1764 14.0631 11.2316 14.3487 11.2305ZM17.6921 19.6157H14.346C13.6246 19.6157 13.3131 19.3151 13.3131 18.5923V14.6996C13.3131 13.9796 13.6259 13.6653 14.3474 13.6653H17.8424C18.5666 13.6653 18.8918 13.9782 18.8918 14.6983V18.5951C18.8918 18.8342 19.1473 19.1088 19.4807 19.1088C19.814 19.1088 20.0231 18.8342 20.0231 18.5951V14.6983C20.0224 14.4128 19.9654 14.1302 19.8554 13.8667C19.7454 13.6032 19.5845 13.364 19.382 13.1627C19.1794 12.9615 18.9392 12.8021 18.6751 12.6938C18.4109 12.5854 18.128 12.5302 17.8424 12.5313H14.3474C13.1423 12.5313 12.1667 13.5014 12.1667 14.6996V18.5937C12.1672 18.8792 12.2241 19.1618 12.3339 19.4254C12.4437 19.6889 12.6045 19.9282 12.8069 20.1296C13.0093 20.331 13.2494 20.4905 13.5135 20.599C13.7776 20.7076 14.0605 20.763 14.346 20.7621H17.8315C18.0829 20.7621 18.4054 20.5571 18.4054 20.1868C18.4047 20.037 18.3454 19.8933 18.2402 19.7866C18.135 19.6799 17.9923 19.6186 17.8424 19.6157H17.6935H17.6921Z" fill="#121212" stroke="#121212" stroke-width="0.63762" mask="url(#path-1-inside-1_526_3523)"/>
</svg>
